# xmcd CD database file
#
# Track frame offsets:
#	150
#	28641
#	56004
#	80980
#	109702
#	134843
#	164159
#	184337
#	201112
#	225275
#	248129
#
# Disc length: 3637 seconds
#
# Revision: 0
# Processed by: cddbd v1.5.2PL0 Copyright (c) Steve Scherf et al.
# Submitted via: CDex 1.51
#
DISCID=9f0e330b
DTITLE=Fabrizio Bosso - You've Changed
DYEAR=2007
DGENRE=Jazz
TTITLE0=The Nearness Of You
TTITLE1=Nuovo Cinema Paradiso
TTITLE2=You've Changed (ft. Dianne Reeves)
TTITLE3=Senza Fine
TTITLE4=Georgia On My Mind
TTITLE5=Estate (ft. Sergio Cammariere)
TTITLE6=Rio De Majo  (Feat. Bebo Ferra)
TTITLE7=Summer Samba
TTITLE8=Joyful Day
TTITLE9=Per Ricordarmi Di Te (ft. Sergio Cammariere)
TTITLE10=You've Changed (Instrumental)
EXTD=YEAR: 2007
EXTT0=
EXTT1=
EXTT2=
EXTT3=
EXTT4=
EXTT5=
EXTT6=
EXTT7=
EXTT8=
EXTT9=
EXTT10=
PLAYORDER=
